<svg xmlns="http://www.w3.org/2000/svg" viewBox="0 0 65.476089 14.543698" width="247" height="55">
  <defs>
    <clipPath clipPathUnits="userSpaceOnUse" id="clipPath1435">
      <path d="M 0,380.556 H 800 V 0 H 0 Z"/>
    </clipPath>
  </defs>
  <g transform="translate(-19.798466,-96.145151)">
    <g clip-path="url(#clipPath1435)" transform="matrix(0.10073243,0,0,-0.10073243,12.243584,122.58417)">
      <g transform="translate(615.1559,233.5061)">
        <path d="m 0,0 c 3.724,1.458 6.174,5.048 6.174,9.047 v 8.019 c 0,10.953 -8.961,11.895 -19.914,11.895 h -25.189 -25.19 c -10.997,0 -19.913,-8.915 -19.913,-19.913 V 6.784 c 0,-1.463 1.186,-2.649 2.649,-2.649 h 5.913 c 1.463,0 2.65,1.186 2.65,2.649 v 2.927 c 0.34,4.504 4.113,8.064 8.701,8.064 h 25.19 25.189 c 3.666,0 8.101,0.651 8.101,-2.808 V 9.494 l -72.219,-30.796 c -3.724,-1.457 -6.174,-5.048 -6.174,-9.046 v -8.019 c 0,-10.953 8.962,-11.895 19.914,-11.895 h 25.189 25.19 c 10.998,0 19.913,8.915 19.913,19.913 v 2.264 c 0,1.462 -1.186,2.648 -2.649,2.648 h -5.914 c -1.463,0 -2.648,-1.186 -2.648,-2.648 v -2.928 c -0.341,-4.503 -4.113,-8.063 -8.702,-8.063 h -25.19 -25.189 c -3.665,0 -8.102,-0.652 -8.102,2.807 v 5.473 z m -317.676,-33.027 c 0.026,0.027 0.057,0.049 0.081,0.076 0.411,0.438 0.796,0.904 1.149,1.396 1.762,2.461 2.765,5.607 2.765,9.549 v 22.71 c 0,2.366 -0.361,4.444 -1.031,6.26 -0.63,1.709 -1.546,3.173 -2.679,4.437 -0.07,0.08 -0.13,0.171 -0.204,0.249 -4.115,4.385 -11.082,6.125 -18.966,6.125 h -27.097 c -12.615,0 -22.88,-4.454 -22.88,-17.071 v -22.71 c 0,-12.616 10.265,-17.07 22.88,-17.07 h 13.549 13.548 c 7.835,0 14.759,1.723 18.885,6.049 m -6.151,-15.577 c -0.14,-0.556 -0.033,-1.16 0.33,-1.658 0.061,-0.083 0.111,-0.17 0.187,-0.245 l 4.763,-4.762 c 2.155,-2.155 5.078,-3.366 8.126,-3.366 h 5.276 c 1.462,0 2.649,-1.186 2.649,-2.649 v -5.888 c 0,-1.463 -1.186,-2.648 -2.649,-2.648 h -8.865 c -3.718,0 -7.283,1.476 -9.912,4.105 l -13.844,13.844 c -1.029,1.031 -2.426,1.609 -3.883,1.609 h -2.247 -6.213 -13.549 c -18.736,0 -34.066,9.52 -34.066,28.257 V 0.704 c 0,18.736 15.33,28.257 34.066,28.257 h 13.549 13.548 c 4.683,0 9.155,-0.594 13.226,-1.78 12.217,-3.556 20.84,-12.424 20.84,-26.477 v -22.71 c 0,-1.038 -0.063,-2.021 -0.154,-2.975 -0.037,-0.4 -0.093,-0.787 -0.145,-1.177 -0.058,-0.407 -0.121,-0.81 -0.195,-1.202 -1.956,-11.124 -10.021,-18.243 -20.838,-21.244 m 116.212,77.565 c -1.463,0 -2.65,-1.186 -2.65,-2.648 V 17.775 1.55 -22.005 c 0,-12.636 -10.243,-17.071 -22.88,-17.071 h -19.43 c -12.637,0 -22.88,4.435 -22.88,17.071 V 1.55 17.775 26.313 c 0,1.462 -1.187,2.648 -2.649,2.648 h -5.888 c -1.463,0 -2.65,-1.186 -2.65,-2.648 v -48.318 c 0,-18.736 15.331,-28.257 34.067,-28.257 h 19.43 c 18.737,0 34.067,9.521 34.067,28.257 v 48.318 c 0,1.462 -1.186,2.648 -2.649,2.648 z M 84.778,22.195 C 83.013,26.3 78.973,28.961 74.504,28.961 H 51.568 C 47.1,28.961 43.06,26.3 41.294,22.195 L 16.686,-46.723 c -0.616,-1.725 0.663,-3.539 2.495,-3.539 h 4.586 c 2.039,0 3.858,1.28 4.546,3.199 l 21.28,59.265 c 1.2,3.343 4.37,5.573 7.922,5.573 h 11.032 c 3.557,0 6.73,-2.237 7.927,-5.587 l 21.153,-59.243 c 0.687,-1.924 2.509,-3.207 4.551,-3.207 h 4.714 c 1.832,0 3.11,1.814 2.495,3.539 z M -97.187,-46.723 c 0.617,-1.725 -0.663,-3.539 -2.494,-3.539 h -4.714 c -2.042,0 -3.864,1.283 -4.55,3.207 L -130.1,12.188 c -1.196,3.35 -4.369,5.587 -7.926,5.587 h -11.032 c -3.552,0 -6.722,-2.23 -7.922,-5.573 l -21.279,-59.265 c -0.689,-1.919 -2.509,-3.199 -4.548,-3.199 h -4.586 c -1.831,0 -3.11,1.814 -2.494,3.539 l 24.609,68.918 c 1.764,4.105 5.804,6.766 10.274,6.766 h 22.935 c 4.468,0 8.508,-2.661 10.274,-6.766 z" style="fill:#45348b;fill-rule:nonzero;stroke:none"/>
      </g>
      <g transform="translate(133.0925,229.5398)">
        <path d="m 0,0 h 26.303 v 13.152 c 0,2.742 -0.418,5.148 -1.194,7.252 -0.729,1.979 -1.791,3.675 -3.103,5.139 -0.082,0.093 -0.152,0.199 -0.236,0.289 -4.768,5.079 -12.837,7.096 -21.972,7.096 h -31.387 c -14.614,0 -26.504,-5.16 -26.504,-19.776 v -26.306 c 0,-14.614 11.89,-19.773 26.504,-19.773 h 5.086 v 13.153 C -26.503,-5.16 -14.613,0 0,0" style="fill:#45348b;fill-rule:nonzero;stroke:none"/>
      </g>
      <g transform="translate(189.7907,217.0164)">
        <path d="m 0,0 c -0.729,1.979 -1.791,3.676 -3.103,5.14 -0.083,0.091 -0.151,0.197 -0.237,0.288 -4.766,5.079 -12.837,7.095 -21.971,7.095 h -5.085 V -0.631 c 0,-4.566 -1.161,-8.21 -3.203,-11.061 -0.409,-0.571 -0.853,-1.109 -1.33,-1.618 -0.029,-0.03 -0.064,-0.057 -0.093,-0.087 -4.78,-5.011 -12.8,-7.007 -21.877,-7.007 h -15.694 -10.608 v -13.154 c 0,-14.613 11.889,-19.773 26.503,-19.773 h 15.695 15.693 c 9.077,0 17.097,1.996 21.876,7.006 0.031,0.032 0.066,0.057 0.094,0.089 0.477,0.507 0.922,1.047 1.33,1.617 2.042,2.85 3.203,6.494 3.203,11.061 V -7.251 C 1.193,-4.511 0.775,-2.103 0,0" style="fill:#7670b2;fill-rule:nonzero;stroke:none"/>
      </g>
      <g transform="translate(502.0134,152.5096)">
        <path d="m 0,0 v 0.258 c 0,0.585 0.095,0.979 0.284,1.187 0.191,0.206 0.559,0.343 1.11,0.412 l 2.942,0.414 0.567,5.315 c 0.034,0.55 0.155,0.919 0.363,1.109 0.205,0.189 0.599,0.284 1.186,0.284 h 0.36 c 0.55,0 0.921,-0.095 1.11,-0.284 C 8.11,8.505 8.205,8.136 8.205,7.586 V 2.271 h 8.362 c 0.653,0 1.083,-0.104 1.289,-0.31 0.206,-0.208 0.31,-0.637 0.31,-1.292 V 0.206 c 0,-0.654 -0.104,-1.083 -0.31,-1.289 -0.206,-0.209 -0.636,-0.31 -1.289,-0.31 H 8.205 v -13.109 c 0,-1.892 0.389,-3.276 1.162,-4.154 0.774,-0.878 1.97,-1.315 3.586,-1.315 1.926,0 3.458,0.171 4.594,0.515 0.585,0.137 0.987,0.111 1.213,-0.078 0.223,-0.188 0.336,-0.611 0.336,-1.263 v -0.466 c 0,-0.515 -0.113,-0.912 -0.336,-1.187 -0.226,-0.275 -0.646,-0.498 -1.266,-0.67 -1.271,-0.344 -2.768,-0.515 -4.489,-0.515 -5.778,0 -8.669,3.044 -8.669,9.133 V -1.393 H 1.394 c -0.586,0 -0.963,0.084 -1.134,0.258 C 0.087,-0.964 0,-0.585 0,0" style="fill:#7670b2;fill-rule:nonzero;stroke:none"/>
      </g>
      <g transform="translate(528.4352,145.5413)">
        <path d="M 0,0 V -1.701 H 13.935 V 0 c 0,4.197 -2.324,6.297 -6.967,6.297 C 2.322,6.297 0,4.197 0,0 m 17.599,-0.568 c 0,-1.203 -0.052,-2.132 -0.157,-2.786 -0.069,-0.652 -0.222,-1.083 -0.463,-1.29 -0.241,-0.205 -0.707,-0.309 -1.393,-0.309 H 0 V -6.5 c 0,-2.34 0.628,-4.018 1.885,-5.034 1.255,-1.014 3.311,-1.521 6.167,-1.521 2.372,0 4.713,0.327 7.018,0.979 0.619,0.174 1.048,0.157 1.289,-0.049 0.241,-0.208 0.362,-0.637 0.362,-1.292 v -0.463 c 0,-0.551 -0.095,-0.947 -0.284,-1.188 -0.191,-0.241 -0.628,-0.464 -1.315,-0.672 -2.1,-0.652 -4.457,-0.979 -7.07,-0.979 -4.13,0 -7.149,0.852 -9.058,2.554 -1.908,1.704 -2.864,4.447 -2.864,8.232 v 4.798 c 0,7.259 3.63,10.89 10.889,10.89 3.44,0 6.064,-0.878 7.869,-2.633 1.807,-1.755 2.711,-4.318 2.711,-7.69" style="fill:#7670b2;fill-rule:nonzero;stroke:none"/>
      </g>
      <g transform="translate(551.0915,139.5047)">
        <path d="m 0,0 v 5.109 c 0,3.474 0.962,6.123 2.89,7.948 1.926,1.822 4.799,2.735 8.618,2.735 1.789,0 3.302,-0.226 4.541,-0.672 0.62,-0.206 1.031,-0.438 1.239,-0.696 0.206,-0.257 0.311,-0.68 0.311,-1.265 v -0.516 c 0,-0.654 -0.105,-1.075 -0.311,-1.265 -0.208,-0.189 -0.619,-0.18 -1.239,0.026 -1.376,0.483 -2.856,0.723 -4.438,0.723 -2.786,0 -4.773,-0.55 -5.961,-1.65 C 4.463,9.374 3.869,7.568 3.869,5.057 V 0.052 c 0,-2.581 0.62,-4.405 1.86,-5.471 1.237,-1.066 3.302,-1.599 6.192,-1.599 1.857,0 3.406,0.223 4.643,0.669 0.585,0.208 0.989,0.208 1.214,0 0.223,-0.206 0.336,-0.637 0.336,-1.289 v -0.516 c 0,-0.55 -0.113,-0.955 -0.336,-1.213 -0.225,-0.258 -0.663,-0.472 -1.315,-0.646 -1.344,-0.446 -2.942,-0.669 -4.8,-0.669 -3.956,0 -6.89,0.869 -8.799,2.606 C 0.955,-6.34 0,-3.647 0,0" style="fill:#7670b2;fill-rule:nonzero;stroke:none"/>
      </g>
      <g transform="translate(577.0475,145.6453)">
        <path d="m 0,0 v -14.656 c 0,-0.689 -0.103,-1.136 -0.309,-1.342 -0.208,-0.205 -0.654,-0.309 -1.342,-0.309 H -2.22 c -0.651,0 -1.092,0.104 -1.314,0.309 -0.224,0.206 -0.336,0.653 -0.336,1.342 V 0 c 0,6.433 3.595,9.651 10.786,9.651 3.682,0 6.39,-0.799 8.128,-2.401 C 16.781,5.651 17.65,3.233 17.65,0 v -14.656 c 0,-0.689 -0.104,-1.136 -0.309,-1.342 -0.206,-0.205 -0.655,-0.309 -1.342,-0.309 H 15.38 c -0.69,0 -1.136,0.104 -1.342,0.309 -0.208,0.206 -0.309,0.653 -0.309,1.342 V 0 c 0,2.167 -0.51,3.708 -1.524,4.62 C 11.191,5.53 9.427,5.987 6.916,5.987 4.404,5.987 2.623,5.521 1.575,4.594 0.523,3.664 0,2.132 0,0" style="fill:#7670b2;fill-rule:nonzero;stroke:none"/>
      </g>
      <g transform="translate(619.0026,139.6585)">
        <path d="m 0,0 v 4.799 c 0,2.581 -0.551,4.421 -1.651,5.524 -1.101,1.1 -3.01,1.651 -5.727,1.651 -2.754,0 -4.688,-0.551 -5.807,-1.651 C -14.303,9.22 -14.862,7.38 -14.862,4.799 V 0 c 0,-2.579 0.559,-4.42 1.677,-5.521 1.119,-1.101 3.053,-1.651 5.807,-1.651 2.717,0 4.626,0.55 5.727,1.651 C -0.551,-4.42 0,-2.579 0,0 m -7.378,-10.836 c -3.922,0 -6.795,0.895 -8.619,2.682 -1.822,1.79 -2.734,4.507 -2.734,8.154 v 4.799 c 0,7.227 3.783,10.839 11.353,10.839 3.888,0 6.734,-0.895 8.539,-2.685 C 2.969,11.166 3.872,8.446 3.872,4.799 V 0 c 0,-7.224 -3.751,-10.836 -11.25,-10.836" style="fill:#7670b2;fill-rule:nonzero;stroke:none"/>
      </g>
      <g transform="translate(628.6013,135.9446)">
        <path d="m 0,0 v 27.867 c 0,0.687 0.103,1.135 0.311,1.341 0.205,0.206 0.651,0.31 1.34,0.31 h 0.568 c 0.652,0 1.093,-0.104 1.315,-0.31 C 3.758,29.002 3.87,28.554 3.87,27.867 V 0.669 c 0,-2.615 0.878,-3.921 2.633,-3.921 h 0.258 c 0.686,0 1.127,-0.079 1.315,-0.232 0.189,-0.156 0.283,-0.525 0.283,-1.11 V -4.956 C 8.359,-5.61 8.265,-6.065 8.076,-6.323 7.888,-6.581 7.5,-6.76 6.914,-6.864 6.811,-6.899 6.503,-6.917 5.985,-6.917 4.094,-6.917 2.622,-6.332 1.573,-5.161 0.524,-3.994 0,-2.271 0,0" style="fill:#7670b2;fill-rule:nonzero;stroke:none"/>
      </g>
      <g transform="translate(658.8932,139.6585)">
        <path d="m 0,0 v 4.799 c 0,2.581 -0.551,4.421 -1.651,5.524 -1.101,1.1 -3.01,1.651 -5.727,1.651 -2.754,0 -4.688,-0.551 -5.807,-1.651 C -14.303,9.22 -14.862,7.38 -14.862,4.799 V 0 c 0,-2.579 0.559,-4.42 1.677,-5.521 1.119,-1.101 3.053,-1.651 5.807,-1.651 2.717,0 4.626,0.55 5.727,1.651 C -0.551,-4.42 0,-2.579 0,0 m -7.378,-10.836 c -3.922,0 -6.795,0.895 -8.619,2.682 -1.822,1.79 -2.734,4.507 -2.734,8.154 v 4.799 c 0,7.227 3.783,10.839 11.353,10.839 3.888,0 6.734,-0.895 8.539,-2.685 C 2.969,11.166 3.872,8.446 3.872,4.799 V 0 c 0,-7.224 -3.751,-10.836 -11.25,-10.836" style="fill:#7670b2;fill-rule:nonzero;stroke:none"/>
      </g>
      <g transform="translate(685.2136,145.7493)">
        <path d="m 0,0 v 0.62 c 0,3.644 -2.254,5.469 -6.761,5.469 -4.576,0 -6.862,-1.825 -6.862,-5.469 V 0 c 0,-1.961 0.524,-3.38 1.573,-4.258 1.049,-0.877 2.813,-1.315 5.289,-1.315 2.477,0 4.224,0.438 5.24,1.315 C -0.507,-3.38 0,-1.961 0,0 m -6.761,-16.102 c -1.926,0 -3.612,0.085 -5.057,0.258 -1.617,-0.79 -2.424,-2.201 -2.424,-4.231 0,-1.652 0.532,-2.77 1.598,-3.355 1.067,-0.585 3.028,-0.877 5.883,-0.877 2.822,0 4.765,0.31 5.833,0.93 1.067,0.619 1.6,1.772 1.6,3.456 0,1.584 -0.516,2.615 -1.55,3.096 -1.065,0.483 -3.026,0.723 -5.883,0.723 M 3.922,0.62 V 0 c 0,-5.987 -3.561,-8.979 -10.683,-8.979 -2.649,0 -4.471,-0.139 -5.468,-0.414 -0.826,-0.275 -1.24,-0.791 -1.24,-1.547 0,-0.724 0.429,-1.205 1.291,-1.445 0.893,-0.208 2.7,-0.31 5.417,-0.31 4.301,0 7.241,-0.535 8.825,-1.601 1.652,-1.032 2.477,-2.854 2.477,-5.47 0,-2.922 -0.843,-4.97 -2.528,-6.14 -1.582,-1.17 -4.507,-1.755 -8.774,-1.755 -4.368,0 -7.345,0.585 -8.927,1.755 -1.619,1.135 -2.424,2.94 -2.424,5.417 0,2.479 0.962,4.318 2.888,5.523 -1.411,0.687 -2.115,1.822 -2.115,3.406 0,2.271 1.394,3.612 4.18,4.024 -2.891,1.17 -4.336,3.682 -4.336,7.536 v 0.62 c 0,2.818 0.947,5.011 2.839,6.578 1.891,1.565 4.524,2.349 7.895,2.349 1.892,0 3.664,-0.345 5.316,-1.034 l 2.942,2.633 c 0.446,0.379 0.809,0.568 1.083,0.568 0.275,0 0.62,-0.189 1.032,-0.568 L 3.974,10.784 C 4.388,10.407 4.594,10.08 4.594,9.805 4.594,9.53 4.388,9.185 3.974,8.773 L 1.65,6.398 C 3.165,4.988 3.922,3.062 3.922,0.62" style="fill:#7670b2;fill-rule:nonzero;stroke:none"/>
      </g>
      <g transform="translate(695.07,130.989)">
        <path d="m 0,0 v 22.14 c 0,0.652 0.102,1.09 0.31,1.316 0.206,0.223 0.652,0.336 1.341,0.336 h 0.568 c 0.652,0 1.092,-0.113 1.315,-0.336 C 3.757,23.23 3.87,22.792 3.87,22.14 V 0 C 3.87,-0.689 3.757,-1.135 3.534,-1.341 3.311,-1.547 2.871,-1.651 2.219,-1.651 H 1.651 c -0.689,0 -1.135,0.104 -1.341,0.31 C 0.102,-1.135 0,-0.689 0,0 m 1.961,34.266 c 0.686,0 1.272,-0.249 1.755,-0.748 0.481,-0.498 0.721,-1.092 0.721,-1.781 0,-0.687 -0.24,-1.272 -0.721,-1.753 C 3.233,29.501 2.647,29.26 1.961,29.26 c -0.724,0 -1.335,0.241 -1.833,0.724 -0.498,0.481 -0.748,1.066 -0.748,1.753 0,0.689 0.25,1.283 0.748,1.781 0.498,0.499 1.109,0.748 1.833,0.748" style="fill:#7670b2;fill-rule:nonzero;stroke:none"/>
      </g>
      <g transform="translate(721.1306,137.1297)">
        <path d="m 0,0 v 3.922 h -6.037 c -2.375,0 -4.087,-0.344 -5.136,-1.031 -1.051,-0.689 -1.575,-1.842 -1.575,-3.458 0,-2.924 1.929,-4.386 5.781,-4.386 2.512,0 4.301,0.368 5.367,1.109 C -0.533,-3.105 0,-1.822 0,0 M 3.869,10.065 V -0.154 c 0,-2.856 -0.86,-4.929 -2.578,-6.219 -1.723,-1.289 -4.457,-1.934 -8.206,-1.934 -3.131,0 -5.531,0.645 -7.2,1.934 -1.668,1.29 -2.502,3.227 -2.502,5.806 0,2.65 0.851,4.567 2.554,5.754 1.704,1.188 4.362,1.782 7.974,1.782 H 0 v 3.096 c 0,1.651 -0.551,2.845 -1.651,3.586 -1.101,0.739 -2.804,1.109 -5.11,1.109 -2.097,0 -3.991,-0.19 -5.677,-0.568 -0.618,-0.138 -1.048,-0.112 -1.29,0.079 -0.24,0.188 -0.361,0.593 -0.361,1.211 v 0.414 c 0,0.585 0.104,0.988 0.31,1.213 0.206,0.224 0.62,0.403 1.239,0.542 1.513,0.342 3.372,0.516 5.573,0.516 7.225,0 10.836,-2.703 10.836,-8.102" style="fill:#7670b2;fill-rule:nonzero;stroke:none"/>
      </g>
    </g>
  </g>
</svg>
